<svg width="222" height="222" viewBox="0 0 222 222" fill="none" xmlns="http://www.w3.org/2000/svg">
<path fill-rule="evenodd" clip-rule="evenodd" d="M52.0984 0C23.3251 0 0 23.3864 0 52.2353V169.765C0 198.614 23.3251 222 52.0984 222H169.32C198.093 222 221.418 198.614 221.418 169.765V52.2353C221.418 23.3864 198.093 0 169.32 0H52.0984ZM117.146 47.0278C118.587 45.5005 119.467 43.4594 119.467 41.2169C119.467 36.4841 115.546 32.6471 110.709 32.6471C105.872 32.6471 101.951 36.4841 101.951 41.2169C101.951 43.4594 102.831 45.5005 104.272 47.0278L54.7625 55.102C53.3549 55.3319 52.3227 56.5238 52.3227 57.9198V58.3566C52.3227 59.9341 53.6297 61.2132 55.2418 61.2132V67.6911C53.4969 68.6786 52.3227 70.5252 52.3227 72.6397C52.3227 73.8793 52.7261 75.0268 53.4116 75.9632L26.3487 134.224C26.157 134.604 26.0492 135.032 26.0492 135.485C26.0492 146.698 40.1535 155.482 58.1613 155.482C76.1691 155.482 90.2734 146.698 90.2734 135.485C90.2737 135.034 90.1666 134.606 89.9758 134.227L62.911 75.9629C63.5965 75.0265 63.9999 73.8793 63.9999 72.6397C63.9999 70.5252 62.8257 68.6786 61.0808 67.6911V61.2132H104.826C103.235 61.2364 101.951 62.5067 101.951 64.0699C101.951 65.6474 103.258 66.9265 104.87 66.9265V132.629C103.258 132.629 101.951 133.908 101.951 135.485V172.621L82.6938 178.51C80.2562 179.255 78.5969 181.464 78.5969 183.963V189.873C78.5969 191.451 79.9039 192.73 81.516 192.73H139.902C141.514 192.73 142.821 191.451 142.821 189.873V183.963C142.821 181.464 141.161 179.256 138.724 178.51L119.466 172.621V135.485C119.466 133.908 118.16 132.629 116.548 132.629L116.547 135.485V66.9265C118.159 66.9265 119.466 65.6477 119.467 64.0699C119.467 62.5067 118.183 61.2364 116.592 61.2132H160.337V67.6911C158.592 68.6786 157.417 70.5252 157.417 72.6397C157.417 73.8793 157.821 75.0268 158.506 75.9632L131.447 134.216C131.253 134.598 131.144 135.03 131.144 135.485C131.144 146.698 145.248 155.482 163.256 155.482C181.226 155.482 195.31 146.734 195.368 135.555C195.373 135.346 195.355 135.134 195.312 134.924C195.263 134.682 195.182 134.452 195.075 134.236L168.006 75.9629C168.691 75.0265 169.095 73.8793 169.095 72.6397C169.095 70.5252 167.92 68.6786 166.176 67.6911V61.2132C167.788 61.2132 169.095 59.9341 169.095 58.3566V57.9198C169.095 56.5238 168.063 55.3319 166.655 55.102L117.146 47.0278ZM163.256 79.5429L187.916 132.629H138.596L163.256 79.5429ZM82.8211 132.629L58.161 79.5426L33.5012 132.629H82.8211Z" fill="#450A0A"/>
</svg>
