<svg width="877" height="221" viewBox="0 0 877 221" fill="none" xmlns="http://www.w3.org/2000/svg">
<path fill-rule="evenodd" clip-rule="evenodd" d="M52.0984 0C23.3251 0 0 23.281 0 52V169C0 197.719 23.3251 221 52.0984 221H169.32C198.093 221 221.418 197.719 221.418 169V52C221.418 23.281 198.093 0 169.32 0H52.0984ZM117.146 46.8159C118.587 45.2956 119.467 43.2637 119.467 41.0312C119.467 36.3197 115.546 32.5 110.709 32.5C105.872 32.5 101.951 36.3197 101.951 41.0312C101.951 43.2637 102.831 45.2956 104.272 46.8159L54.7625 54.8538C53.3549 55.0826 52.3227 56.2692 52.3227 57.6589V58.0938C52.3227 59.6642 53.6297 60.9375 55.2418 60.9375V67.3861C53.4969 68.3693 52.3227 70.2075 52.3227 72.3125C52.3227 73.5465 52.7261 74.6889 53.4116 75.621L26.3487 133.619C26.157 133.998 26.0492 134.424 26.0492 134.875C26.0492 146.037 40.1535 154.781 58.1613 154.781C76.1691 154.781 90.2734 146.037 90.2734 134.875C90.2738 134.426 90.1666 134 89.9758 133.622L62.911 75.6207C63.5965 74.6886 63.9999 73.5465 63.9999 72.3125C63.9999 70.2075 62.8257 68.3693 61.0808 67.3861V60.9375H104.826C103.235 60.9606 101.951 62.2251 101.951 63.7812C101.951 65.3516 103.258 66.625 104.87 66.625V132.031C103.258 132.032 101.951 133.305 101.951 134.875V171.844L82.6938 177.706C80.2562 178.448 78.5969 180.647 78.5969 183.135V189.018C78.5969 190.589 79.9039 191.862 81.516 191.862H139.902C141.514 191.862 142.821 190.589 142.821 189.018V183.135C142.821 180.647 141.161 178.448 138.724 177.706L119.466 171.844V134.875C119.466 133.305 118.16 132.031 116.548 132.031L116.547 134.875V66.625C118.159 66.625 119.466 65.352 119.467 63.7812C119.467 62.2251 118.183 60.9606 116.592 60.9375H160.337V67.3861C158.592 68.3693 157.417 70.2075 157.417 72.3125C157.417 73.5465 157.821 74.6889 158.506 75.621L131.447 133.611C131.253 133.992 131.144 134.421 131.144 134.875C131.144 146.037 145.248 154.781 163.256 154.781C181.226 154.781 195.31 146.074 195.368 134.944C195.373 134.736 195.355 134.525 195.312 134.316C195.263 134.076 195.182 133.846 195.075 133.631L168.006 75.6207C168.691 74.6886 169.095 73.5465 169.095 72.3125C169.095 70.2075 167.92 68.3693 166.176 67.3861V60.9375C167.788 60.9375 169.095 59.6642 169.095 58.0938V57.6589C169.095 56.2692 168.063 55.0826 166.655 54.8538L117.146 46.8159ZM163.256 79.1846L187.916 132.031H138.596L163.256 79.1846ZM82.8211 132.031L58.161 79.1843L33.5012 132.031H82.8211Z" fill="white"/>
<path d="M298.118 85.312V37.8434H317.059C320.7 37.8434 323.802 38.531 326.365 39.9063C328.928 41.2661 330.881 43.1589 332.225 45.5849C333.585 47.9954 334.265 50.7768 334.265 53.929C334.265 57.0812 333.577 59.8626 332.202 62.2731C330.827 64.6836 328.834 66.561 326.224 67.9053C323.63 69.2497 320.489 69.9218 316.801 69.9218H304.729V61.879H315.16C317.113 61.879 318.723 61.5468 319.989 60.8824C321.27 60.2025 322.224 59.2676 322.849 58.0778C323.489 56.8726 323.81 55.4896 323.81 53.929C323.81 52.3529 323.489 50.9776 322.849 49.8033C322.224 48.6135 321.27 47.6941 319.989 47.0451C318.707 46.3807 317.082 46.0485 315.113 46.0485H308.268V85.312H298.118Z" fill="white"/>
<path d="M340.857 85.312V37.8434H359.798C363.423 37.8434 366.518 38.4847 369.08 39.7672C371.659 41.0343 373.62 42.8344 374.964 45.1677C376.324 47.4855 377.004 50.2128 377.004 53.3495C377.004 56.5017 376.316 59.2136 374.941 61.485C373.566 63.741 371.573 65.4716 368.963 66.6769C366.369 67.8821 363.228 68.4848 359.54 68.4848H346.858V60.4188H357.899C359.837 60.4188 361.446 60.1561 362.728 59.6308C364.009 59.1054 364.963 58.3173 365.588 57.2666C366.228 56.2159 366.549 54.9102 366.549 53.3495C366.549 51.7734 366.228 50.4445 365.588 49.3629C364.963 48.2813 364.002 47.4623 362.704 46.906C361.423 46.3343 359.806 46.0485 357.852 46.0485H351.007V85.312H340.857ZM366.783 63.7101L378.715 85.312H367.51L355.836 63.7101H366.783Z" fill="white"/>
<path d="M394.327 37.8434V85.312H384.177V37.8434H394.327Z" fill="white"/>
<path d="M402.677 37.8434H415.195L428.416 69.7364H428.978L442.199 37.8434H454.717V85.312H444.871V54.4157H444.473L432.049 85.0802H425.345L412.921 54.2998H412.523V85.312H402.677V37.8434Z" fill="white"/>
<path d="M463.079 85.312V37.8434H495.428V46.118H473.229V57.4289H493.764V65.7034H473.229V77.0375H495.522V85.312H463.079Z" fill="white"/>
<path d="M503.498 85.312V37.8434H522.438C526.064 37.8434 529.158 38.4847 531.721 39.7672C534.299 41.0343 536.261 42.8344 537.604 45.1677C538.964 47.4855 539.644 50.2128 539.644 53.3495C539.644 56.5017 538.956 59.2136 537.581 61.485C536.206 63.741 534.213 65.4716 531.604 66.6769C529.009 67.8821 525.868 68.4848 522.18 68.4848H509.499V60.4188H520.539C522.477 60.4188 524.087 60.1561 525.368 59.6308C526.65 59.1054 527.603 58.3173 528.228 57.2666C528.869 56.2159 529.189 54.9102 529.189 53.3495C529.189 51.7734 528.869 50.4445 528.228 49.3629C527.603 48.2813 526.642 47.4623 525.345 46.906C524.063 46.3343 522.446 46.0485 520.492 46.0485H513.648V85.312H503.498ZM529.424 63.7101L541.355 85.312H530.15L518.477 63.7101H529.424Z" fill="white"/>
<path d="M590.933 61.5777C590.933 66.7542 589.941 71.158 587.956 74.7892C585.987 78.4204 583.299 81.1941 579.892 83.1101C576.501 85.0107 572.688 85.961 568.453 85.961C564.187 85.961 560.358 85.003 556.967 83.0869C553.576 81.1709 550.896 78.3972 548.927 74.766C546.958 71.1348 545.973 66.7387 545.973 61.5777C545.973 56.4013 546.958 51.9975 548.927 48.3663C550.896 44.735 553.576 41.9691 556.967 40.0685C560.358 38.1525 564.187 37.1944 568.453 37.1944C572.688 37.1944 576.501 38.1525 579.892 40.0685C583.299 41.9691 585.987 44.735 587.956 48.3663C589.941 51.9975 590.933 56.4013 590.933 61.5777ZM580.642 61.5777C580.642 58.2246 580.134 55.3969 579.119 53.0946C578.119 50.7922 576.704 49.0461 574.876 47.8563C573.047 46.6665 570.906 46.0716 568.453 46.0716C566 46.0716 563.859 46.6665 562.03 47.8563C560.202 49.0461 558.78 50.7922 557.764 53.0946C556.764 55.3969 556.264 58.2246 556.264 61.5777C556.264 64.9308 556.764 67.7585 557.764 70.0609C558.78 72.3632 560.202 74.1093 562.03 75.2991C563.859 76.4889 566 77.0838 568.453 77.0838C570.906 77.0838 573.047 76.4889 574.876 75.2991C576.704 74.1093 578.119 72.3632 579.119 70.0609C580.134 67.7585 580.642 64.9308 580.642 61.5777Z" fill="white"/>
<path d="M624.495 51.4953C624.307 49.6256 623.503 48.1731 622.08 47.1378C620.658 46.1025 618.728 45.5849 616.29 45.5849C614.634 45.5849 613.235 45.8167 612.095 46.2802C610.954 46.7283 610.079 47.3541 609.469 48.1576C608.875 48.9612 608.578 49.8728 608.578 50.8927C608.547 51.7425 608.727 52.4842 609.117 53.1177C609.524 53.7513 610.079 54.2998 610.782 54.7634C611.485 55.2115 612.298 55.6055 613.22 55.9455C614.142 56.27 615.126 56.5481 616.173 56.7799L620.486 57.7997C622.581 58.2633 624.503 58.8813 626.253 59.6539C628.003 60.4265 629.519 61.3768 630.8 62.5048C632.082 63.6328 633.074 64.9617 633.778 66.4915C634.496 68.0212 634.864 69.775 634.879 71.7529C634.864 74.6579 634.114 77.1765 632.629 79.3089C631.16 81.4258 629.035 83.0715 626.253 84.2458C623.487 85.4047 620.15 85.9842 616.244 85.9842C612.368 85.9842 608.992 85.397 606.117 84.2227C603.257 83.0483 601.022 81.31 599.413 79.0076C597.819 76.6898 596.983 73.8234 596.905 70.4086H606.727C606.836 72.0001 607.297 73.329 608.11 74.3952C608.938 75.4459 610.04 76.2417 611.415 76.7825C612.806 77.3079 614.376 77.5706 616.126 77.5706C617.845 77.5706 619.338 77.3233 620.604 76.8289C621.885 76.3344 622.877 75.6468 623.581 74.766C624.284 73.8853 624.635 72.8732 624.635 71.7297C624.635 70.6635 624.315 69.7673 623.674 69.041C623.049 68.3148 622.127 67.6967 620.908 67.1868C619.705 66.6769 618.228 66.2133 616.478 65.7961L611.251 64.4982C607.203 63.5247 604.007 62.0027 601.663 59.9321C599.319 57.8615 598.155 55.0724 598.17 51.5648C598.155 48.6907 598.928 46.1798 600.491 44.032C602.07 41.8841 604.234 40.2076 606.984 39.0023C609.735 37.7971 612.86 37.1944 616.361 37.1944C619.924 37.1944 623.034 37.7971 625.69 39.0023C628.363 40.2076 630.441 41.8841 631.926 44.032C633.41 46.1798 634.176 48.6676 634.223 51.4953H624.495Z" fill="white"/>
<path d="M660.205 85.312V37.8434H679.145C682.786 37.8434 685.889 38.531 688.451 39.9063C691.014 41.2661 692.968 43.1589 694.312 45.5849C695.671 47.9954 696.351 50.7768 696.351 53.929C696.351 57.0812 695.663 59.8625 694.288 62.2731C692.913 64.6836 690.921 66.561 688.311 67.9053C685.717 69.2497 682.576 69.9218 678.887 69.9218H666.815V61.879H677.247C679.2 61.879 680.81 61.5468 682.075 60.8824C683.357 60.2025 684.31 59.2677 684.935 58.0778C685.576 56.8726 685.896 55.4896 685.896 53.929C685.896 52.3529 685.576 50.9776 684.935 49.8033C684.31 48.6135 683.357 47.6941 682.075 47.0451C680.794 46.3807 679.169 46.0485 677.2 46.0485H670.355V85.312H660.205Z" fill="white"/>
<path d="M705.675 85.312H694.798L711.371 37.8434H724.451L741.001 85.312H730.124L718.099 48.6907H717.724L705.675 85.312ZM704.995 66.6537H730.686V74.4879H704.995V66.6537Z" fill="white"/>
<path d="M771.726 51.4953C771.538 49.6256 770.734 48.1731 769.312 47.1378C767.889 46.1025 765.959 45.5849 763.522 45.5849C761.865 45.5849 760.466 45.8167 759.326 46.2802C758.185 46.7283 757.31 47.3541 756.7 48.1576C756.106 48.9612 755.809 49.8728 755.809 50.8927C755.778 51.7425 755.958 52.4842 756.349 53.1177C756.755 53.7513 757.31 54.2998 758.013 54.7634C758.716 55.2115 759.529 55.6055 760.451 55.9455C761.373 56.27 762.357 56.5481 763.404 56.7799L767.718 57.7997C769.812 58.2633 771.734 58.8813 773.484 59.6539C775.234 60.4265 776.75 61.3768 778.032 62.5048C779.313 63.6328 780.305 64.9617 781.009 66.4915C781.728 68.0212 782.095 69.775 782.11 71.7529C782.095 74.6579 781.345 77.1765 779.86 79.3089C778.391 81.4258 776.266 83.0715 773.484 84.2458C770.718 85.4047 767.382 85.9842 763.475 85.9842C759.599 85.9842 756.224 85.397 753.348 84.2227C750.488 83.0483 748.254 81.3099 746.644 79.0076C745.05 76.6898 744.214 73.8234 744.136 70.4086H753.958C754.067 72.0001 754.528 73.329 755.341 74.3952C756.169 75.4459 757.271 76.2417 758.646 76.7825C760.037 77.3079 761.607 77.5706 763.358 77.5706C765.077 77.5706 766.569 77.3233 767.835 76.8289C769.116 76.3344 770.109 75.6468 770.812 74.766C771.515 73.8853 771.867 72.8732 771.867 71.7297C771.867 70.6635 771.546 69.7673 770.906 69.041C770.28 68.3148 769.358 67.6967 768.139 67.1868C766.936 66.6769 765.459 66.2133 763.709 65.7961L758.482 64.4982C754.434 63.5247 751.238 62.0027 748.894 59.9321C746.55 57.8615 745.386 55.0724 745.402 51.5648C745.386 48.6907 746.159 46.1798 747.722 44.032C749.301 41.8841 751.465 40.2076 754.216 39.0023C756.966 37.7971 760.091 37.1944 763.592 37.1944C767.155 37.1944 770.265 37.7971 772.921 39.0023C775.594 40.2076 777.672 41.8841 779.157 44.032C780.641 46.1798 781.407 48.6676 781.454 51.4953H771.726Z" fill="white"/>
<path d="M833.054 61.5777C833.054 66.7542 832.061 71.158 830.077 74.7892C828.108 78.4204 825.42 81.1941 822.013 83.1101C818.622 85.0107 814.809 85.961 810.574 85.961C806.307 85.961 802.479 85.003 799.088 83.0869C795.696 81.1709 793.016 78.3972 791.047 74.766C789.078 71.1348 788.094 66.7387 788.094 61.5777C788.094 56.4013 789.078 51.9975 791.047 48.3662C793.016 44.735 795.696 41.9691 799.088 40.0685C802.479 38.1525 806.307 37.1944 810.574 37.1944C814.809 37.1944 818.622 38.1525 822.013 40.0685C825.42 41.9691 828.108 44.735 830.077 48.3662C832.061 51.9975 833.054 56.4013 833.054 61.5777ZM822.763 61.5777C822.763 58.2246 822.255 55.3969 821.24 53.0946C820.239 50.7922 818.825 49.0461 816.997 47.8563C815.168 46.6665 813.027 46.0716 810.574 46.0716C808.12 46.0716 805.979 46.6665 804.151 47.8563C802.323 49.0461 800.9 50.7922 799.885 53.0946C798.884 55.3969 798.384 58.2246 798.384 61.5777C798.384 64.9308 798.884 67.7585 799.885 70.0609C800.9 72.3632 802.323 74.1093 804.151 75.2991C805.979 76.4889 808.12 77.0838 810.574 77.0838C813.027 77.0838 815.168 76.4889 816.997 75.2991C818.825 74.1093 820.239 72.3632 821.24 70.0609C822.255 67.7585 822.763 64.9308 822.763 61.5777Z" fill="white"/>
<path d="M866.616 51.4953C866.428 49.6256 865.623 48.1731 864.201 47.1378C862.779 46.1025 860.849 45.5849 858.411 45.5849C856.755 45.5849 855.356 45.8167 854.215 46.2802C853.074 46.7283 852.199 47.3541 851.59 48.1576C850.996 48.9612 850.699 49.8728 850.699 50.8927C850.668 51.7425 850.848 52.4842 851.238 53.1177C851.645 53.7513 852.199 54.2998 852.903 54.7634C853.606 55.2115 854.418 55.6055 855.34 55.9455C856.262 56.27 857.247 56.5481 858.294 56.7799L862.607 57.7997C864.701 58.2633 866.623 58.8813 868.374 59.6539C870.124 60.4265 871.64 61.3768 872.921 62.5048C874.203 63.6328 875.195 64.9617 875.898 66.4915C876.617 68.0212 876.984 69.775 877 71.7529C876.984 74.6579 876.234 77.1765 874.75 79.3089C873.281 81.4258 871.155 83.0715 868.374 84.2458C865.608 85.4047 862.271 85.9842 858.364 85.9842C854.489 85.9842 851.113 85.397 848.238 84.2227C845.378 83.0483 843.143 81.3099 841.534 79.0076C839.94 76.6898 839.104 73.8234 839.025 70.4086H848.847C848.957 72.0001 849.418 73.329 850.23 74.3952C851.059 75.4459 852.16 76.2417 853.536 76.7825C854.926 77.3079 856.497 77.5706 858.247 77.5706C859.966 77.5706 861.459 77.3233 862.724 76.8289C864.006 76.3344 864.998 75.6468 865.701 74.766C866.405 73.8853 866.756 72.8732 866.756 71.7297C866.756 70.6635 866.436 69.7673 865.795 69.041C865.17 68.3148 864.248 67.6967 863.029 67.1868C861.826 66.6769 860.349 66.2133 858.599 65.7961L853.371 64.4982C849.324 63.5247 846.128 62.0027 843.784 59.9321C841.44 57.8615 840.276 55.0724 840.291 51.5648C840.276 48.6907 841.049 46.1798 842.612 44.032C844.19 41.8841 846.355 40.2076 849.105 39.0023C851.856 37.7971 854.981 37.1944 858.482 37.1944C862.045 37.1944 865.154 37.7971 867.811 39.0023C870.483 40.2076 872.562 41.8841 874.046 44.032C875.531 46.1798 876.297 48.6676 876.344 51.4953H866.616Z" fill="white"/>
<path d="M316.727 185.19H298.118L326.472 101.533H348.85L377.163 185.19H358.555L337.981 120.65H337.34L316.727 185.19ZM315.563 152.307H359.517V166.113H315.563V152.307Z" fill="white"/>
<path d="M387.048 185.19V101.533H419.933C425.976 101.533 431.015 102.445 435.053 104.269C439.09 106.094 442.124 108.627 444.156 111.867C446.188 115.081 447.204 118.784 447.204 122.978C447.204 126.246 446.562 129.119 445.279 131.597C443.996 134.048 442.231 136.063 439.985 137.642C437.766 139.195 435.226 140.297 432.366 140.951V141.768C435.494 141.904 438.421 142.803 441.148 144.464C443.902 146.125 446.135 148.453 447.846 151.449C449.557 154.417 450.412 157.957 450.412 162.07C450.412 166.508 449.329 170.471 447.164 173.956C445.025 177.415 441.857 180.152 437.659 182.167C433.462 184.182 428.288 185.19 422.139 185.19H387.048ZM404.413 170.729H418.57C423.409 170.729 426.938 169.79 429.157 167.911C431.376 166.005 432.486 163.472 432.486 160.313C432.486 157.998 431.938 155.956 430.842 154.186C429.745 152.416 428.181 151.027 426.149 150.019C424.144 149.012 421.751 148.508 418.971 148.508H404.413V170.729ZM404.413 136.539H417.287C419.666 136.539 421.778 136.117 423.623 135.273C425.494 134.402 426.965 133.176 428.034 131.597C429.131 130.017 429.679 128.125 429.679 125.919C429.679 122.896 428.623 120.459 426.51 118.607C424.425 116.755 421.457 115.829 417.607 115.829H404.413V136.539Z" fill="white"/>
<path d="M537.187 143.361C537.187 152.484 535.489 160.245 532.094 166.645C528.725 173.044 524.126 177.932 518.298 181.309C512.496 184.659 505.973 186.333 498.727 186.333C491.428 186.333 484.878 184.645 479.076 181.268C473.275 177.891 468.69 173.003 465.321 166.604C461.952 160.204 460.268 152.457 460.268 143.361C460.268 134.238 461.952 126.477 465.321 120.078C468.69 113.678 473.275 108.804 479.076 105.454C484.878 102.077 491.428 100.389 498.727 100.389C505.973 100.389 512.496 102.077 518.298 105.454C524.126 108.804 528.725 113.678 532.094 120.078C535.489 126.477 537.187 134.238 537.187 143.361ZM519.581 143.361C519.581 137.452 518.712 132.468 516.974 128.411C515.263 124.353 512.844 121.276 509.716 119.179C506.588 117.082 502.925 116.034 498.727 116.034C494.53 116.034 490.867 117.082 487.739 119.179C484.611 121.276 482.178 124.353 480.44 128.411C478.729 132.468 477.873 137.452 477.873 143.361C477.873 149.27 478.729 154.254 480.44 158.312C482.178 162.369 484.611 165.446 487.739 167.543C490.867 169.64 494.53 170.688 498.727 170.688C502.925 170.688 506.588 169.64 509.716 167.543C512.844 165.446 515.263 162.369 516.974 158.312C518.712 154.254 519.581 149.27 519.581 143.361Z" fill="white"/>
<path d="M604.511 128.574C603.949 126.586 603.161 124.83 602.145 123.305C601.129 121.752 599.885 120.445 598.415 119.383C596.971 118.294 595.314 117.463 593.442 116.892C591.597 116.32 589.552 116.034 587.306 116.034C583.109 116.034 579.419 117.096 576.238 119.22C573.083 121.344 570.623 124.435 568.859 128.492C567.094 132.523 566.212 137.452 566.212 143.279C566.212 149.107 567.081 154.063 568.818 158.148C570.556 162.233 573.016 165.351 576.198 167.502C579.379 169.626 583.136 170.688 587.467 170.688C591.397 170.688 594.752 169.98 597.533 168.564C600.34 167.121 602.479 165.092 603.949 162.478C605.447 159.864 606.195 156.773 606.195 153.206L609.724 153.736H588.55V140.42H622.918V150.959C622.918 158.312 621.395 164.629 618.347 169.912C615.299 175.168 611.101 179.226 605.754 182.085C600.407 184.917 594.284 186.333 587.387 186.333C579.687 186.333 572.922 184.604 567.094 181.146C561.266 177.66 556.721 172.717 553.459 166.318C550.224 159.891 548.606 152.266 548.606 143.443C548.606 136.662 549.569 130.616 551.494 125.306C553.445 119.969 556.172 115.448 559.675 111.745C563.177 108.041 567.254 105.223 571.906 103.289C576.559 101.356 581.598 100.389 587.026 100.389C591.678 100.389 596.009 101.083 600.019 102.472C604.03 103.834 607.585 105.767 610.687 108.273C613.815 110.778 616.368 113.76 618.347 117.218C620.325 120.65 621.595 124.435 622.156 128.574H604.511Z" fill="white"/>
<path d="M647.582 185.19H628.974L657.327 101.533H679.705L708.019 185.19H689.41L668.837 120.65H668.195L647.582 185.19ZM646.419 152.307H690.373V166.113H646.419V152.307Z" fill="white"/>
<path d="M747.019 185.19H717.904V101.533H747.26C755.521 101.533 762.633 103.207 768.595 106.557C774.557 109.879 779.143 114.658 782.351 120.895C785.586 127.131 787.203 134.592 787.203 143.279C787.203 151.994 785.586 159.482 782.351 165.746C779.143 172.009 774.531 176.816 768.515 180.165C762.526 183.515 755.361 185.19 747.019 185.19ZM735.269 170.035H746.298C751.431 170.035 755.749 169.109 759.251 167.257C762.78 165.378 765.427 162.478 767.192 158.557C768.983 154.608 769.879 149.516 769.879 143.279C769.879 137.098 768.983 132.046 767.192 128.125C765.427 124.203 762.794 121.317 759.291 119.465C755.789 117.613 751.471 116.687 746.338 116.687H735.269V170.035Z" fill="white"/>
<path d="M875.542 143.361C875.542 152.484 873.844 160.245 870.449 166.645C867.08 173.044 862.481 177.932 856.653 181.309C850.851 184.659 844.328 186.333 837.082 186.333C829.784 186.333 823.233 184.645 817.432 181.268C811.63 177.891 807.045 173.003 803.676 166.604C800.307 160.204 798.623 152.457 798.623 143.361C798.623 134.238 800.307 126.477 803.676 120.078C807.045 113.678 811.63 108.804 817.432 105.454C823.233 102.077 829.784 100.389 837.082 100.389C844.328 100.389 850.851 102.077 856.653 105.454C862.481 108.804 867.08 113.678 870.449 120.078C873.844 126.477 875.542 134.238 875.542 143.361ZM857.936 143.361C857.936 137.452 857.067 132.468 855.33 128.411C853.618 124.353 851.199 121.276 848.071 119.179C844.943 117.082 841.28 116.034 837.082 116.034C832.885 116.034 829.222 117.082 826.094 119.179C822.966 121.276 820.533 124.353 818.795 128.411C817.084 132.468 816.228 137.452 816.228 143.361C816.228 149.27 817.084 154.254 818.795 158.312C820.533 162.369 822.966 165.446 826.094 167.543C829.222 169.64 832.885 170.688 837.082 170.688C841.28 170.688 844.943 169.64 848.071 167.543C851.199 165.446 853.618 162.369 855.33 158.312C857.067 154.254 857.936 149.27 857.936 143.361Z" fill="white"/>
</svg>
