<svg width="877" height="222" viewBox="0 0 877 222" fill="none" xmlns="http://www.w3.org/2000/svg">
<path fill-rule="evenodd" clip-rule="evenodd" d="M52.0984 0C23.3251 0 0 23.3864 0 52.2353V169.765C0 198.614 23.3251 222 52.0984 222H169.32C198.093 222 221.418 198.614 221.418 169.765V52.2353C221.418 23.3864 198.093 0 169.32 0H52.0984ZM117.146 47.0278C118.587 45.5005 119.467 43.4594 119.467 41.2169C119.467 36.4841 115.546 32.6471 110.709 32.6471C105.872 32.6471 101.951 36.4841 101.951 41.2169C101.951 43.4594 102.831 45.5005 104.272 47.0278L54.7625 55.102C53.3549 55.3319 52.3227 56.5238 52.3227 57.9198V58.3566C52.3227 59.9341 53.6297 61.2132 55.2418 61.2132V67.6911C53.4969 68.6786 52.3227 70.5252 52.3227 72.6397C52.3227 73.8793 52.7261 75.0268 53.4116 75.9632L26.3487 134.224C26.157 134.604 26.0492 135.032 26.0492 135.485C26.0492 146.698 40.1535 155.482 58.1613 155.482C76.1691 155.482 90.2734 146.698 90.2734 135.485C90.2738 135.034 90.1666 134.606 89.9758 134.227L62.911 75.9629C63.5965 75.0265 63.9999 73.8793 63.9999 72.6397C63.9999 70.5252 62.8257 68.6786 61.0808 67.6911V61.2132H104.826C103.235 61.2364 101.951 62.5067 101.951 64.0699C101.951 65.6474 103.258 66.9265 104.87 66.9265V132.629C103.258 132.629 101.951 133.908 101.951 135.485V172.621L82.6938 178.51C80.2562 179.255 78.5969 181.464 78.5969 183.963V189.873C78.5969 191.451 79.9039 192.73 81.516 192.73H139.902C141.514 192.73 142.821 191.451 142.821 189.873V183.963C142.821 181.464 141.161 179.256 138.724 178.51L119.466 172.621V135.485C119.466 133.908 118.16 132.629 116.548 132.629L116.547 135.485V66.9265C118.159 66.9265 119.466 65.6477 119.467 64.0699C119.467 62.5067 118.183 61.2364 116.592 61.2132H160.337V67.6911C158.592 68.6786 157.417 70.5252 157.417 72.6397C157.417 73.8793 157.821 75.0268 158.506 75.9632L131.447 134.216C131.253 134.598 131.144 135.03 131.144 135.485C131.144 146.698 145.248 155.482 163.256 155.482C181.226 155.482 195.31 146.734 195.368 135.555C195.373 135.346 195.355 135.134 195.312 134.924C195.263 134.682 195.182 134.452 195.075 134.236L168.006 75.9629C168.691 75.0265 169.095 73.8793 169.095 72.6397C169.095 70.5252 167.92 68.6786 166.176 67.6911V61.2132C167.788 61.2132 169.095 59.9341 169.095 58.3566V57.9198C169.095 56.5238 168.063 55.3319 166.655 55.102L117.146 47.0278ZM163.256 79.5429L187.916 132.629H138.596L163.256 79.5429ZM82.8211 132.629L58.161 79.5426L33.5012 132.629H82.8211Z" fill="#450A0A"/>
<path d="M298.118 85.6981V38.0147H317.059C320.7 38.0147 323.802 38.7054 326.365 40.0868C328.928 41.4528 330.881 43.3542 332.225 45.7912C333.585 48.2126 334.265 51.0065 334.265 54.173C334.265 57.3395 333.577 60.1334 332.202 62.5548C330.827 64.9763 328.834 66.8622 326.224 68.2126C323.63 69.563 320.489 70.2382 316.801 70.2382H304.729V62.159H315.16C317.113 62.159 318.723 61.8253 319.989 61.1579C321.27 60.4749 322.224 59.5358 322.849 58.3406C323.489 57.1299 323.81 55.7407 323.81 54.173C323.81 52.5898 323.489 51.2083 322.849 50.0286C322.224 48.8335 321.27 47.9099 319.989 47.258C318.707 46.5905 317.082 46.2568 315.113 46.2568H308.268V85.6981H298.118Z" fill="#450A0A"/>
<path d="M340.857 85.6981V38.0147H359.798C363.423 38.0147 366.518 38.6588 369.08 39.9471C371.659 41.2199 373.62 43.0283 374.964 45.3721C376.324 47.7004 377.004 50.44 377.004 53.5909C377.004 56.7574 376.316 59.4815 374.941 61.7632C373.566 64.0294 371.573 65.7679 368.963 66.9786C366.369 68.1893 363.228 68.7947 359.54 68.7947H346.858V60.6922H357.899C359.837 60.6922 361.446 60.4283 362.728 59.9006C364.009 59.3728 364.963 58.5812 365.588 57.5257C366.228 56.4702 366.549 55.1586 366.549 53.5909C366.549 52.0077 366.228 50.6728 365.588 49.5863C364.963 48.4997 364.002 47.6771 362.704 47.1183C361.423 46.544 359.806 46.2568 357.852 46.2568H351.007V85.6981H340.857ZM366.783 63.9984L378.715 85.6981H367.51L355.836 63.9984H366.783Z" fill="#450A0A"/>
<path d="M394.327 38.0147V85.6981H384.177V38.0147H394.327Z" fill="#450A0A"/>
<path d="M402.677 38.0147H415.195L428.416 70.0519H428.978L442.199 38.0147H454.717V85.6981H444.871V54.6619H444.473L432.049 85.4652H425.345L412.921 54.5455H412.523V85.6981H402.677V38.0147Z" fill="#450A0A"/>
<path d="M463.079 85.6981V38.0147H495.428V46.3267H473.229V57.6887H493.764V66.0007H473.229V77.3861H495.522V85.6981H463.079Z" fill="#450A0A"/>
<path d="M503.498 85.6981V38.0147H522.438C526.064 38.0147 529.158 38.6588 531.721 39.9471C534.299 41.2199 536.261 43.0283 537.604 45.3721C538.964 47.7004 539.644 50.44 539.644 53.5909C539.644 56.7574 538.956 59.4815 537.581 61.7632C536.206 64.0294 534.213 65.7679 531.604 66.9786C529.009 68.1893 525.868 68.7947 522.18 68.7947H509.499V60.6922H520.539C522.477 60.6922 524.087 60.4283 525.368 59.9006C526.65 59.3728 527.603 58.5812 528.228 57.5257C528.869 56.4702 529.189 55.1586 529.189 53.5909C529.189 52.0077 528.869 50.6728 528.228 49.5863C527.603 48.4997 526.642 47.6771 525.345 47.1183C524.063 46.544 522.446 46.2568 520.492 46.2568H513.648V85.6981H503.498ZM529.424 63.9984L541.355 85.6981H530.15L518.477 63.9984H529.424Z" fill="#450A0A"/>
<path d="M590.933 61.8564C590.933 67.0562 589.941 71.48 587.956 75.1276C585.987 78.7753 583.299 81.5615 579.892 83.4862C576.501 85.3954 572.688 86.35 568.453 86.35C564.187 86.35 560.358 85.3876 556.967 83.4629C553.576 81.5382 550.896 78.752 548.927 75.1043C546.958 71.4567 545.973 67.0407 545.973 61.8564C545.973 56.6565 546.958 52.2328 548.927 48.5851C550.896 44.9375 553.576 42.159 556.967 40.2498C560.358 38.3251 564.187 37.3627 568.453 37.3627C572.688 37.3627 576.501 38.3251 579.892 40.2498C583.299 42.159 585.987 44.9375 587.956 48.5851C589.941 52.2328 590.933 56.6565 590.933 61.8564ZM580.642 61.8564C580.642 58.4881 580.134 55.6476 579.119 53.3348C578.119 51.022 576.704 49.2681 574.876 48.0729C573.047 46.8777 570.906 46.2801 568.453 46.2801C566 46.2801 563.859 46.8777 562.03 48.0729C560.202 49.2681 558.78 51.022 557.764 53.3348C556.764 55.6476 556.264 58.4881 556.264 61.8564C556.264 65.2246 556.764 68.0651 557.764 70.3779C558.78 72.6907 560.202 74.4446 562.03 75.6398C563.859 76.835 566 77.4326 568.453 77.4326C570.906 77.4326 573.047 76.835 574.876 75.6398C576.704 74.4446 578.119 72.6907 579.119 70.3779C580.134 68.0651 580.642 65.2246 580.642 61.8564Z" fill="#450A0A"/>
<path d="M624.495 51.7283C624.307 49.8501 623.503 48.3911 622.08 47.3511C620.658 46.3111 618.728 45.7912 616.29 45.7912C614.634 45.7912 613.235 46.024 612.095 46.4896C610.954 46.9398 610.079 47.5684 609.469 48.3756C608.875 49.1827 608.578 50.0985 608.578 51.1229C608.547 51.9766 608.727 52.7217 609.117 53.3581C609.524 53.9945 610.079 54.5455 610.782 55.0112C611.485 55.4613 612.298 55.8571 613.22 56.1986C614.142 56.5246 615.126 56.804 616.173 57.0368L620.486 58.0612C622.581 58.5269 624.503 59.1478 626.253 59.9239C628.003 60.7 629.519 61.6546 630.8 62.7877C632.082 63.9208 633.074 65.2557 633.778 66.7923C634.496 68.329 634.864 70.0907 634.879 72.0776C634.864 74.9957 634.114 77.5257 632.629 79.6678C631.16 81.7943 629.035 83.4474 626.253 84.627C623.487 85.7912 620.15 86.3733 616.244 86.3733C612.368 86.3733 608.992 85.7834 606.117 84.6038C603.257 83.4241 601.022 81.6779 599.413 79.3651C597.819 77.0368 596.983 74.1575 596.905 70.7271H606.727C606.836 72.3259 607.297 73.6608 608.11 74.7318C608.938 75.7873 610.04 76.5867 611.415 77.1299C612.806 77.6577 614.376 77.9216 616.126 77.9216C617.845 77.9216 619.338 77.6732 620.604 77.1765C621.885 76.6798 622.877 75.9891 623.581 75.1043C624.284 74.2196 624.635 73.2029 624.635 72.0543C624.635 70.9833 624.315 70.083 623.674 69.3534C623.049 68.6239 622.127 68.003 620.908 67.4908C619.705 66.9786 618.228 66.5129 616.478 66.0938L611.251 64.79C607.203 63.8121 604.007 62.2832 601.663 60.2033C599.319 58.1233 598.155 55.3216 598.17 51.7981C598.155 48.9111 598.928 46.3887 600.491 44.2312C602.07 42.0737 604.234 40.3895 606.984 39.1788C609.735 37.9681 612.86 37.3627 616.361 37.3627C619.924 37.3627 623.034 37.9681 625.69 39.1788C628.363 40.3895 630.441 42.0737 631.926 44.2312C633.41 46.3887 634.176 48.8878 634.223 51.7283H624.495Z" fill="#450A0A"/>
<path d="M660.205 85.6981V38.0147H679.145C682.786 38.0147 685.889 38.7054 688.451 40.0868C691.014 41.4528 692.968 43.3542 694.312 45.7911C695.671 48.2126 696.351 51.0065 696.351 54.173C696.351 57.3395 695.663 60.1334 694.288 62.5548C692.913 64.9763 690.921 66.8622 688.311 68.2126C685.717 69.563 682.576 70.2382 678.887 70.2382H666.815V62.159H677.247C679.2 62.159 680.81 61.8253 682.075 61.1579C683.357 60.4749 684.31 59.5358 684.935 58.3406C685.576 57.1299 685.896 55.7407 685.896 54.173C685.896 52.5898 685.576 51.2083 684.935 50.0286C684.31 48.8335 683.357 47.9099 682.075 47.258C680.794 46.5905 679.169 46.2568 677.2 46.2568H670.355V85.6981H660.205Z" fill="#450A0A"/>
<path d="M705.675 85.6981H694.798L711.371 38.0147H724.451L741.001 85.6981H730.124L718.099 48.9111H717.724L705.675 85.6981ZM704.995 66.9553H730.686V74.8249H704.995V66.9553Z" fill="#450A0A"/>
<path d="M771.726 51.7283C771.538 49.8501 770.734 48.3911 769.312 47.3511C767.889 46.3111 765.959 45.7911 763.522 45.7911C761.865 45.7911 760.466 46.024 759.326 46.4896C758.185 46.9398 757.31 47.5684 756.7 48.3756C756.106 49.1827 755.809 50.0985 755.809 51.1229C755.778 51.9767 755.958 52.7217 756.349 53.3581C756.755 53.9945 757.31 54.5455 758.013 55.0112C758.716 55.4613 759.529 55.8571 760.451 56.1986C761.373 56.5246 762.357 56.804 763.404 57.0368L767.718 58.0612C769.812 58.5269 771.734 59.1478 773.484 59.9239C775.234 60.7 776.75 61.6546 778.032 62.7877C779.313 63.9208 780.305 65.2557 781.009 66.7923C781.728 68.329 782.095 70.0907 782.11 72.0775C782.095 74.9957 781.345 77.5257 779.86 79.6678C778.391 81.7943 776.266 83.4474 773.484 84.627C770.718 85.7912 767.382 86.3732 763.475 86.3732C759.599 86.3732 756.224 85.7834 753.348 84.6038C750.488 83.4241 748.254 81.6779 746.644 79.3651C745.05 77.0368 744.214 74.1575 744.136 70.7271H753.958C754.067 72.3259 754.528 73.6608 755.341 74.7318C756.169 75.7873 757.271 76.5867 758.646 77.1299C760.037 77.6577 761.607 77.9216 763.358 77.9216C765.077 77.9216 766.569 77.6732 767.835 77.1765C769.116 76.6798 770.109 75.9891 770.812 75.1043C771.515 74.2196 771.867 73.2029 771.867 72.0543C771.867 70.9833 771.546 70.083 770.906 69.3534C770.28 68.6239 769.358 68.003 768.139 67.4908C766.936 66.9786 765.459 66.5129 763.709 66.0938L758.482 64.79C754.434 63.8121 751.238 62.2832 748.894 60.2033C746.55 58.1233 745.386 55.3216 745.402 51.7981C745.386 48.9111 746.159 46.3887 747.722 44.2312C749.301 42.0736 751.465 40.3895 754.216 39.1788C756.966 37.9681 760.091 37.3627 763.592 37.3627C767.155 37.3627 770.265 37.9681 772.921 39.1788C775.594 40.3895 777.672 42.0736 779.157 44.2312C780.641 46.3887 781.407 48.8878 781.454 51.7283H771.726Z" fill="#450A0A"/>
<path d="M833.054 61.8564C833.054 67.0562 832.061 71.48 830.077 75.1276C828.108 78.7753 825.42 81.5615 822.013 83.4862C818.622 85.3954 814.809 86.35 810.574 86.35C806.307 86.35 802.479 85.3876 799.088 83.4629C795.696 81.5382 793.016 78.752 791.047 75.1043C789.078 71.4567 788.094 67.0407 788.094 61.8564C788.094 56.6565 789.078 52.2327 791.047 48.5851C793.016 44.9374 795.696 42.159 799.088 40.2498C802.479 38.3251 806.307 37.3627 810.574 37.3627C814.809 37.3627 818.622 38.3251 822.013 40.2498C825.42 42.159 828.108 44.9374 830.077 48.5851C832.061 52.2327 833.054 56.6565 833.054 61.8564ZM822.763 61.8564C822.763 58.4881 822.255 55.6476 821.24 53.3348C820.239 51.022 818.825 49.2681 816.997 48.0729C815.168 46.8777 813.027 46.2801 810.574 46.2801C808.12 46.2801 805.979 46.8777 804.151 48.0729C802.323 49.2681 800.9 51.022 799.885 53.3348C798.884 55.6476 798.384 58.4881 798.384 61.8564C798.384 65.2246 798.884 68.0651 799.885 70.3779C800.9 72.6907 802.323 74.4446 804.151 75.6398C805.979 76.835 808.12 77.4326 810.574 77.4326C813.027 77.4326 815.168 76.835 816.997 75.6398C818.825 74.4446 820.239 72.6907 821.24 70.3779C822.255 68.0651 822.763 65.2246 822.763 61.8564Z" fill="#450A0A"/>
<path d="M866.616 51.7283C866.428 49.8501 865.623 48.3911 864.201 47.3511C862.779 46.3111 860.849 45.7911 858.411 45.7911C856.755 45.7911 855.356 46.024 854.215 46.4896C853.074 46.9398 852.199 47.5684 851.59 48.3756C850.996 49.1827 850.699 50.0985 850.699 51.1229C850.668 51.9767 850.848 52.7217 851.238 53.3581C851.645 53.9945 852.199 54.5455 852.903 55.0112C853.606 55.4613 854.418 55.8571 855.34 56.1986C856.262 56.5246 857.247 56.804 858.294 57.0368L862.607 58.0612C864.701 58.5269 866.623 59.1478 868.374 59.9239C870.124 60.7 871.64 61.6546 872.921 62.7877C874.203 63.9208 875.195 65.2557 875.898 66.7923C876.617 68.329 876.984 70.0907 877 72.0775C876.984 74.9957 876.234 77.5257 874.75 79.6678C873.281 81.7943 871.155 83.4474 868.374 84.627C865.608 85.7912 862.271 86.3732 858.364 86.3732C854.489 86.3732 851.113 85.7834 848.238 84.6038C845.378 83.4241 843.143 81.6779 841.534 79.3651C839.94 77.0368 839.104 74.1575 839.025 70.7271H848.847C848.957 72.3259 849.418 73.6608 850.23 74.7318C851.059 75.7873 852.16 76.5867 853.536 77.1299C854.926 77.6577 856.497 77.9216 858.247 77.9216C859.966 77.9216 861.459 77.6732 862.724 77.1765C864.006 76.6798 864.998 75.9891 865.701 75.1043C866.405 74.2196 866.756 73.2029 866.756 72.0543C866.756 70.9833 866.436 70.083 865.795 69.3534C865.17 68.6239 864.248 68.003 863.029 67.4908C861.826 66.9786 860.349 66.5129 858.599 66.0938L853.371 64.79C849.324 63.8121 846.128 62.2832 843.784 60.2033C841.44 58.1233 840.276 55.3216 840.291 51.7981C840.276 48.9111 841.049 46.3887 842.612 44.2312C844.19 42.0736 846.355 40.3895 849.105 39.1788C851.856 37.9681 854.981 37.3627 858.482 37.3627C862.045 37.3627 865.154 37.9681 867.811 39.1788C870.483 40.3895 872.562 42.0736 874.046 44.2312C875.531 46.3887 876.297 48.8878 876.344 51.7283H866.616Z" fill="#450A0A"/>
<path d="M316.727 186.028H298.118L326.472 101.992H348.85L377.163 186.028H358.555L337.981 121.195H337.34L316.727 186.028ZM315.563 152.996H359.517V166.865H315.563V152.996Z" fill="#450A0A"/>
<path d="M387.048 186.028V101.992H419.933C425.976 101.992 431.015 102.908 435.053 104.741C439.09 106.574 442.124 109.118 444.156 112.373C446.188 115.601 447.204 119.322 447.204 123.534C447.204 126.817 446.562 129.703 445.279 132.192C443.996 134.654 442.231 136.679 439.985 138.265C437.766 139.824 435.226 140.932 432.366 141.589V142.409C435.494 142.546 438.421 143.449 441.148 145.118C443.902 146.786 446.135 149.125 447.846 152.134C449.557 155.116 450.412 158.672 450.412 162.803C450.412 167.262 449.329 171.242 447.164 174.743C445.025 178.218 441.857 180.967 437.659 182.991C433.462 185.015 428.288 186.028 422.139 186.028H387.048ZM404.413 171.502H418.57C423.409 171.502 426.938 170.558 429.157 168.671C431.376 166.756 432.486 164.212 432.486 161.038C432.486 158.713 431.938 156.662 430.842 154.884C429.745 153.105 428.181 151.71 426.149 150.698C424.144 149.686 421.751 149.18 418.971 149.18H404.413V171.502ZM404.413 137.157H417.287C419.666 137.157 421.778 136.733 423.623 135.885C425.494 135.01 426.965 133.779 428.034 132.192C429.131 130.606 429.679 128.704 429.679 126.489C429.679 123.452 428.623 121.004 426.51 119.144C424.425 117.284 421.457 116.354 417.607 116.354H404.413V137.157Z" fill="#450A0A"/>
<path d="M537.187 144.01C537.187 153.174 535.489 160.97 532.094 167.399C528.725 173.827 524.126 178.737 518.298 182.129C512.496 185.494 505.973 187.176 498.727 187.176C491.428 187.176 484.878 185.48 479.076 182.088C473.275 178.696 468.69 173.786 465.321 167.358C461.952 160.929 460.268 153.146 460.268 144.01C460.268 134.846 461.952 127.05 465.321 120.621C468.69 114.193 473.275 109.296 479.076 105.931C484.878 102.539 491.428 100.843 498.727 100.843C505.973 100.843 512.496 102.539 518.298 105.931C524.126 109.296 528.725 114.193 532.094 120.621C535.489 127.05 537.187 134.846 537.187 144.01ZM519.581 144.01C519.581 138.074 518.712 133.068 516.974 128.992C515.263 124.916 512.844 121.825 509.716 119.718C506.588 117.612 502.925 116.559 498.727 116.559C494.53 116.559 490.867 117.612 487.739 119.718C484.611 121.825 482.178 124.916 480.44 128.992C478.729 133.068 477.873 138.074 477.873 144.01C477.873 149.946 478.729 154.952 480.44 159.028C482.178 163.104 484.611 166.195 487.739 168.301C490.867 170.408 494.53 171.461 498.727 171.461C502.925 171.461 506.588 170.408 509.716 168.301C512.844 166.195 515.263 163.104 516.974 159.028C518.712 154.952 519.581 149.946 519.581 144.01Z" fill="#450A0A"/>
<path d="M604.511 129.156C603.949 127.159 603.161 125.395 602.145 123.863C601.129 122.303 599.885 120.99 598.415 119.923C596.971 118.829 595.314 117.995 593.442 117.42C591.597 116.846 589.552 116.559 587.306 116.559C583.109 116.559 579.419 117.626 576.238 119.759C573.083 121.893 570.623 124.998 568.859 129.074C567.094 133.122 566.212 138.074 566.212 143.928C566.212 149.782 567.081 154.76 568.818 158.864C570.556 162.967 573.016 166.099 576.198 168.26C579.379 170.394 583.136 171.461 587.467 171.461C591.397 171.461 594.752 170.75 597.533 169.327C600.34 167.877 602.479 165.839 603.949 163.213C605.447 160.587 606.195 157.482 606.195 153.899L609.724 154.432H588.55V141.055H622.918V151.642C622.918 159.028 621.395 165.374 618.347 170.681C615.299 175.961 611.101 180.037 605.754 182.909C600.407 185.754 594.284 187.176 587.387 187.176C579.687 187.176 572.922 185.439 567.094 181.965C561.266 178.464 556.721 173.499 553.459 167.07C550.224 160.614 548.606 152.955 548.606 144.092C548.606 137.28 549.569 131.208 551.494 125.873C553.445 120.512 556.172 115.971 559.675 112.25C563.177 108.53 567.254 105.699 571.906 103.756C576.559 101.814 581.598 100.843 587.026 100.843C591.678 100.843 596.009 101.541 600.019 102.936C604.03 104.304 607.585 106.246 610.687 108.762C613.815 111.279 616.368 114.275 618.347 117.749C620.325 121.195 621.595 124.998 622.156 129.156H604.511Z" fill="#450A0A"/>
<path d="M647.582 186.028H628.974L657.327 101.992H679.705L708.019 186.028H689.41L668.837 121.195H668.195L647.582 186.028ZM646.419 152.996H690.373V166.865H646.419V152.996Z" fill="#450A0A"/>
<path d="M747.019 186.028H717.904V101.992H747.26C755.521 101.992 762.633 103.674 768.595 107.039C774.557 110.376 779.143 115.177 782.351 121.442C785.586 127.706 787.203 135.201 787.203 143.928C787.203 152.681 785.586 160.204 782.351 166.496C779.143 172.788 774.531 177.616 768.515 180.98C762.526 184.345 755.361 186.028 747.019 186.028ZM735.269 170.804H746.298C751.431 170.804 755.749 169.874 759.251 168.014C762.78 166.127 765.427 163.213 767.192 159.274C768.983 155.308 769.879 150.192 769.879 143.928C769.879 137.718 768.983 132.644 767.192 128.704C765.427 124.765 762.794 121.866 759.291 120.005C755.789 118.145 751.471 117.215 746.338 117.215H735.269V170.804Z" fill="#450A0A"/>
<path d="M875.542 144.01C875.542 153.174 873.844 160.97 870.449 167.399C867.08 173.827 862.481 178.737 856.653 182.129C850.851 185.494 844.328 187.176 837.082 187.176C829.784 187.176 823.233 185.48 817.432 182.088C811.63 178.696 807.045 173.786 803.676 167.358C800.307 160.929 798.623 153.146 798.623 144.01C798.623 134.846 800.307 127.05 803.676 120.621C807.045 114.193 811.63 109.296 817.432 105.931C823.233 102.539 829.784 100.843 837.082 100.843C844.328 100.843 850.851 102.539 856.653 105.931C862.481 109.296 867.08 114.193 870.449 120.621C873.844 127.05 875.542 134.846 875.542 144.01ZM857.936 144.01C857.936 138.074 857.067 133.068 855.33 128.992C853.618 124.916 851.199 121.825 848.071 119.718C844.943 117.612 841.28 116.559 837.082 116.559C832.885 116.559 829.222 117.612 826.094 119.718C822.966 121.825 820.533 124.916 818.795 128.992C817.084 133.068 816.228 138.074 816.228 144.01C816.228 149.946 817.084 154.952 818.795 159.028C820.533 163.104 822.966 166.195 826.094 168.301C829.222 170.408 832.885 171.461 837.082 171.461C841.28 171.461 844.943 170.408 848.071 168.301C851.199 166.195 853.618 163.104 855.33 159.028C857.067 154.952 857.936 149.946 857.936 144.01Z" fill="#450A0A"/>
</svg>
